<svg width="1024" height="1024" viewBox="0 0 1024 1024" xmlns="http://www.w3.org/2000/svg">
  <defs>
    <linearGradient id="g3" x1="0" y1="0" x2="1" y2="1">
      <stop offset="0%" stop-color="#E6FAF4"/>
      <stop offset="100%" stop-color="#F0F7FF"/>
    </linearGradient>
  </defs>
  <rect width="1024" height="1024" fill="url(#g3)"/>
  <g transform="translate(160,160)">
    <rect width="704" height="704" rx="48" fill="#FFFFFF" stroke="#CFF5EA" stroke-width="4"/>
    <!-- pie -->
    <g transform="translate(230,240)">
      <circle r="120" fill="#F9FAFB" stroke="#E5E7EB" stroke-width="2"/>
      <path d="M 0 -120 A 120 120 0 0 1 114 36 L 0 0 Z" fill="#00B894"/>
      <path d="M 114 36 A 120 120 0 0 1 -80 90 L 0 0 Z" fill="#74B9FF"/>
      <path d="M -80 90 A 120 120 0 0 1 0 -120 L 0 0 Z" fill="#FFB020"/>
      <circle r="64" fill="#FFFFFF"/>
    </g>
    <!-- bars -->
    <g transform="translate(480,360)">
      <rect x="-100" y="-80" width="40" height="160" rx="8" fill="#74B9FF"/>
      <rect x="-40" y="-120" width="40" height="200" rx="8" fill="#00B894"/>
      <rect x="20" y="-56" width="40" height="112" rx="8" fill="#FFB020"/>
      <rect x="80" y="-40" width="40" height="80" rx="8" fill="#6B7280"/>
    </g>
    <!-- legend -->
    <g transform="translate(120,520)">
      <rect width="18" height="18" rx="4" fill="#00B894"/><text x="28" y="14" font-size="16" fill="#2D3436" font-family="PlusJakartaSans_600">Transport</text>
      <g transform="translate(220,0)">
        <rect width="18" height="18" rx="4" fill="#74B9FF"/><text x="28" y="14" font-size="16" fill="#2D3436" font-family="PlusJakartaSans_600">Logement</text>
      </g>
      <g transform="translate(440,0)">
        <rect width="18" height="18" rx="4" fill="#FFB020"/><text x="28" y="14" font-size="16" fill="#2D3436" font-family="PlusJakartaSans_600">Resto</text>
      </g>
    </g>
  </g>
</svg>