<svg width="1024" height="1024" viewBox="0 0 1024 1024" xmlns="http://www.w3.org/2000/svg">
  <defs>
    <linearGradient id="g1" x1="0" y1="0" x2="1" y2="1">
      <stop offset="0%" stop-color="#E6FAF4"/>
      <stop offset="100%" stop-color="#F0F7FF"/>
    </linearGradient>
    <linearGradient id="accent1" x1="0" y1="0" x2="1" y2="1">
      <stop offset="0%" stop-color="#00B894"/>
      <stop offset="100%" stop-color="#2D8DF0"/>
    </linearGradient>
    <linearGradient id="chip" x1="0" y1="0" x2="1" y2="1">
      <stop offset="0%" stop-color="#74B9FF"/>
      <stop offset="100%" stop-color="#3FD6AF"/>
    </linearGradient>
  </defs>
  <rect width="1024" height="1024" fill="url(#g1)"/>
  <!-- phone card -->
  <g transform="translate(212,140)">
    <rect rx="48" ry="48" width="600" height="800" fill="#FFFFFF" stroke="#CFF5EA" stroke-width="4"/>
    <rect x="260" y="24" width="80" height="10" rx="5" fill="#E5E7EB"/>
    <!-- header -->
    <rect x="40" y="80" width="520" height="28" rx="14" fill="#F2F3F5"/>
    <rect x="40" y="124" width="320" height="16" rx="8" fill="#E5E7EB"/>
    <!-- expense rows -->
    <g transform="translate(40,170)"><rect width="520" height="68" rx="16" fill="#F9FAFB" stroke="#E5E7EB"/><rect x="16" y="12" width="180" height="14" rx="7" fill="#6FE0C3"/><rect x="16" y="34" width="260" height="12" rx="6" fill="#D1D5DB"/><rect x="420" y="20" width="84" height="28" rx="14" fill="url(#chip)"/></g><g transform="translate(40,258)"><rect width="520" height="68" rx="16" fill="#F9FAFB" stroke="#E5E7EB"/><rect x="16" y="12" width="180" height="14" rx="7" fill="#6FE0C3"/><rect x="16" y="34" width="260" height="12" rx="6" fill="#D1D5DB"/><rect x="420" y="20" width="84" height="28" rx="14" fill="url(#chip)"/></g><g transform="translate(40,346)"><rect width="520" height="68" rx="16" fill="#F9FAFB" stroke="#E5E7EB"/><rect x="16" y="12" width="180" height="14" rx="7" fill="#6FE0C3"/><rect x="16" y="34" width="260" height="12" rx="6" fill="#D1D5DB"/><rect x="420" y="20" width="84" height="28" rx="14" fill="url(#chip)"/></g><g transform="translate(40,434)"><rect width="520" height="68" rx="16" fill="#F9FAFB" stroke="#E5E7EB"/><rect x="16" y="12" width="180" height="14" rx="7" fill="#6FE0C3"/><rect x="16" y="34" width="260" height="12" rx="6" fill="#D1D5DB"/><rect x="420" y="20" width="84" height="28" rx="14" fill="url(#chip)"/></g><g transform="translate(40,522)"><rect width="520" height="68" rx="16" fill="#F9FAFB" stroke="#E5E7EB"/><rect x="16" y="12" width="180" height="14" rx="7" fill="#6FE0C3"/><rect x="16" y="34" width="260" height="12" rx="6" fill="#D1D5DB"/><rect x="420" y="20" width="84" height="28" rx="14" fill="url(#chip)"/></g><g transform="translate(40,610)"><rect width="520" height="68" rx="16" fill="#F9FAFB" stroke="#E5E7EB"/><rect x="16" y="12" width="180" height="14" rx="7" fill="#6FE0C3"/><rect x="16" y="34" width="260" height="12" rx="6" fill="#D1D5DB"/><rect x="420" y="20" width="84" height="28" rx="14" fill="url(#chip)"/></g>
    <!-- floating plus -->
    <g transform="translate(496,720)">
      <circle r="36" cx="0" cy="0" fill="url(#accent1)"/>
      <rect x="-14" y="-3" width="28" height="6" rx="3" fill="#FFFFFF"/>
      <rect x="-3" y="-14" width="6" height="28" rx="3" fill="#FFFFFF"/>
    </g>
  </g>
</svg>